<svg width="106" height="95" viewBox="0 0 106 95" fill="none" xmlns="http://www.w3.org/2000/svg">
<path fill-rule="evenodd" clip-rule="evenodd" d="M100.876 68C93.5489 81.6884 79.1119 91 62.5 91C38.4756 91 19 71.5244 19 47.5C19 23.4756 38.4756 4 62.5 4C79.1119 4 93.5489 13.3116 100.876 27H105.361C97.7082 11.0292 81.3921 0 62.5 0C36.2665 0 15 21.2665 15 47.5C15 73.7335 36.2665 95 62.5 95C81.3921 95 97.7082 83.9708 105.361 68H100.876Z" fill="black"/>
<path fill-rule="evenodd" clip-rule="evenodd" d="M85.8763 68C78.5489 81.6884 64.1119 91 47.5 91C23.4756 91 4 71.5244 4 47.5C4 23.4756 23.4756 4 47.5 4C64.1119 4 78.5489 13.3116 85.8763 27H90.3608C82.7082 11.0292 66.3921 0 47.5 0C21.2665 0 0 21.2665 0 47.5C0 73.7335 21.2665 95 47.5 95C66.3921 95 82.7082 83.9708 90.3608 68H85.8763Z" fill="black"/>
<line x1="88" y1="25.5" x2="103" y2="25.5" stroke="black" stroke-width="3"/>
<line x1="88" y1="69.5" x2="103" y2="69.5" stroke="black" stroke-width="3"/>
</svg>
