<svg width="110" height="95" viewBox="0 0 110 95" fill="none" xmlns="http://www.w3.org/2000/svg">
<path fill-rule="evenodd" clip-rule="evenodd" d="M103.738 68C96.5022 81.1157 82.5386 90 66.5 90C43.0279 90 24 70.9721 24 47.5C24 24.0279 43.0279 5 66.5 5C82.5386 5 96.5022 13.8843 103.738 27H109.361C101.708 11.0292 85.3921 0 66.5 0C40.2665 0 19 21.2665 19 47.5C19 73.7335 40.2665 95 66.5 95C85.3921 95 101.708 83.9708 109.361 68H103.738Z" fill="black"/>
<path fill-rule="evenodd" clip-rule="evenodd" d="M84.738 68C77.5022 81.1157 63.5386 90 47.5 90C24.0279 90 5 70.9721 5 47.5C5 24.0279 24.0279 5 47.5 5C63.5386 5 77.5022 13.8843 84.738 27H90.3608C82.7082 11.0292 66.3921 0 47.5 0C21.2665 0 0 21.2665 0 47.5C0 73.7335 21.2665 95 47.5 95C66.3921 95 82.7082 83.9708 90.3608 68H84.738Z" fill="black"/>
<line x1="88" y1="25.5" x2="107" y2="25.5" stroke="black" stroke-width="3"/>
<line x1="88" y1="69.5" x2="107" y2="69.5" stroke="black" stroke-width="3"/>
</svg>
